<?xml version="1.0" encoding="utf-8"?>
<!-- Generator: Adobe Illustrator 27.5.0, SVG Export Plug-In . SVG Version: 6.00 Build 0)  -->
<svg version="1.1" xmlns="http://www.w3.org/2000/svg" xmlns:xlink="http://www.w3.org/1999/xlink" x="0px" y="0px"
	 viewBox="0 0 500 500" style="enable-background:new 0 0 500 500;" xml:space="preserve">
<g id="BACKGROUND">
</g>
<g id="OBJECTS">
	<g>
		<g>
			<path style="fill:#171719;" d="M132.063,218.243h235.875v87.995c0,17.178-13.926,31.104-31.104,31.104H163.167
				c-17.178,0-31.104-13.926-31.104-31.104V218.243z"/>
			<path style="fill:#171719;" d="M150.903,184.677h198.194c10.405,0,18.84,8.435,18.84,18.84v8.092H132.063v-8.092
				C132.063,193.112,140.498,184.677,150.903,184.677z"/>
			<path style="fill:#171719;" d="M315.409,194.055h-76.961l5.881-19.102c2.25-7.308,9.002-12.294,16.649-12.294h31.902
				c7.646,0,14.399,4.986,16.649,12.294L315.409,194.055z"/>
			<path style="fill:#FFFFFF;" d="M350.62,263.752c0,40.646-32.944,73.59-73.59,73.59c-40.634,0-73.578-32.944-73.578-73.59
				c0-40.634,32.944-73.578,73.578-73.578C317.676,190.173,350.62,223.117,350.62,263.752z"/>
			<path d="M326.608,263.754c0,27.382-22.193,49.576-49.576,49.576c-27.374,0-49.568-22.194-49.568-49.576
				c0-27.374,22.193-49.568,49.568-49.568C304.414,214.186,326.608,236.379,326.608,263.754z"/>
			<path style="fill:#171719;" d="M277.032,197.07c-36.83,0-66.684,29.853-66.684,66.684c0,36.83,29.853,66.691,66.684,66.691
				c36.83,0,66.691-29.861,66.691-66.691C343.723,226.923,313.862,197.07,277.032,197.07z M277.032,322.507
				c-32.444,0-58.745-26.302-58.745-58.753c0-32.444,26.302-58.745,58.745-58.745c32.452,0,58.753,26.301,58.753,58.745
				C335.785,296.205,309.484,322.507,277.032,322.507z"/>
			<path d="M326.608,263.754c0,27.382-22.193,49.576-49.576,49.576c-27.374,0-49.568-22.194-49.568-49.576
				c0-27.374,22.193-49.568,49.568-49.568C304.414,214.186,326.608,236.379,326.608,263.754z"/>
			<path style="fill:#171719;" d="M326.608,263.754c0,27.382-22.193,49.576-49.576,49.576c-27.374,0-49.568-22.194-49.568-49.576
				c0-27.374,22.193-49.568,49.568-49.568C304.414,214.186,326.608,236.379,326.608,263.754z"/>
			<path style="fill:#171719;" d="M314.614,263.754c0,20.757-16.824,37.581-37.581,37.581c-20.751,0-37.575-16.824-37.575-37.581
				c0-20.751,16.824-37.575,37.575-37.575C297.79,226.179,314.614,243.003,314.614,263.754z"/>
			<path style="fill:#171719;" d="M191.508,194.055H161.71v-9.523c0-3.41,2.765-6.175,6.175-6.175h17.447
				c3.41,0,6.175,2.765,6.175,6.175V194.055z"/>
			<path style="fill:#171719;" d="M343.723,190.173h-25.21v-5.355c0-2.318,1.879-4.197,4.197-4.197h16.817
				c2.318,0,4.197,1.879,4.197,4.197V190.173z"/>
			<path style="fill:#FFFFFF;" d="M281.431,305.11c0,0,33.978-3.774,35.493-42.942C316.924,262.168,311.586,283.639,281.431,305.11z
				"/>
			<path style="fill:#FFFFFF;" d="M210.832,318.441c0,2.711-2.198,4.909-4.91,4.909c-2.711,0-4.91-2.198-4.91-4.909
				c0-2.712,2.198-4.91,4.91-4.91C208.634,313.531,210.832,315.729,210.832,318.441z"/>
			<path style="fill:#FFFFFF;" d="M315.409,251.379c0,1.776-1.44,3.216-3.216,3.216s-3.216-1.44-3.216-3.216s1.44-3.216,3.216-3.216
				S315.409,249.603,315.409,251.379z"/>
		</g>
		<g>
			<path style="fill:#FC033D;" d="M250,67.185C149.037,67.185,67.184,149.029,67.184,250c0,100.963,81.853,182.815,182.816,182.815
				c100.971,0,182.815-81.853,182.815-182.815C432.815,149.029,350.971,67.185,250,67.185z M250,406.284
				c-86.31,0-156.284-69.973-156.284-156.284c0-86.318,69.973-156.291,156.284-156.291c86.318,0,156.283,69.973,156.283,156.291
				C406.283,336.31,336.318,406.284,250,406.284z"/>
			<polygon style="fill:#FC033D;" points="141.412,119.137 386.372,364.098 368.993,381.477 124.573,137.057 			"/>
		</g>
		<g>
			<g>
				<g>
					<path style="fill:#171719;" d="M227.774,170.767c-0.572,0-1.149-0.181-1.64-0.556l-13.404-10.249
						c-1.186-0.907-1.412-2.603-0.505-3.789c0.905-1.185,2.6-1.412,3.788-0.505l13.404,10.249c1.186,0.907,1.412,2.603,0.505,3.789
						C229.391,170.402,228.587,170.767,227.774,170.767z"/>
				</g>
				<g>
					<path style="fill:#171719;" d="M237.678,164.869c-1.254,0-2.378-0.878-2.644-2.154l-3.428-16.521
						c-0.303-1.461,0.636-2.892,2.098-3.195c1.458-0.307,2.891,0.636,3.195,2.097l3.428,16.521c0.303,1.462-0.636,2.892-2.098,3.195
						C238.046,164.851,237.86,164.869,237.678,164.869z"/>
				</g>
			</g>
			<g>
				<g>
					<path style="fill:#171719;" d="M325.262,170.767c-0.813,0-1.616-0.365-2.148-1.061c-0.907-1.186-0.681-2.882,0.505-3.788
						l13.403-10.25c1.188-0.907,2.882-0.681,3.788,0.505c0.907,1.186,0.681,2.882-0.505,3.788l-13.403,10.25
						C326.412,170.586,325.835,170.767,325.262,170.767z"/>
				</g>
				<g>
					<path style="fill:#171719;" d="M315.357,164.869c-0.182,0-0.367-0.019-0.552-0.057c-1.462-0.303-2.4-1.733-2.098-3.195
						l3.428-16.521c0.305-1.461,1.737-2.4,3.195-2.097c1.462,0.303,2.4,1.733,2.098,3.195l-3.428,16.521
						C317.735,163.991,316.611,164.869,315.357,164.869z"/>
				</g>
			</g>
		</g>
	</g>
</g>
</svg>
